<?xml version="1.0" standalone="no"?>
<!DOCTYPE svg PUBLIC "-//W3C//DTD SVG 20010904//EN"
 "http://www.w3.org/TR/2001/REC-SVG-20010904/DTD/svg10.dtd">
<svg version="1.0" xmlns="http://www.w3.org/2000/svg"
 width="224.000000pt" height="224.000000pt" viewBox="0 0 224.000000 224.000000"
 preserveAspectRatio="xMidYMid meet">
<metadata>
Created by potrace 1.11, written by Peter Selinger 2001-2013
</metadata>
<g transform="translate(0.000000,224.000000) scale(0.100000,-0.100000)"
fill="#000000" stroke="none">
<path d="M0 1120 l0 -1120 497 0 497 1 33 25 c35 26 40 25 23 -7 -10 -18 -6
-19 125 -19 83 0 135 4 135 10 0 6 18 10 40 10 22 0 40 -4 40 -10 0 -7 148
-10 425 -10 l425 0 0 1120 0 1120 -1120 0 -1120 0 0 -1120z m198 1013 c2 -33
-1 -44 -20 -57 -27 -19 -69 -21 -86 -4 -17 17 -15 68 5 90 12 14 28 18 57 16
40 -3 41 -4 44 -45z m1016 -69 c23 -9 9 -24 -21 -24 -21 0 -24 2 -13 15 14 17
13 17 34 9z m-64 -82 c-11 -23 -29 -46 -39 -52 -19 -9 -19 -9 -4 23 16 33 54
80 60 74 1 -2 -6 -22 -17 -45z m42 16 c-7 -7 -12 -8 -12 -2 0 14 12 26 19 19
2 -3 -1 -11 -7 -17z m-168 -49 c11 1 16 -2 11 -8 -3 -6 -11 -9 -16 -6 -5 4 -9
0 -9 -8 0 -12 -4 -13 -24 -4 -18 9 -22 15 -14 24 6 7 15 10 22 6 6 -4 19 -6
30 -4z m34 -79 c4 0 7 -14 8 -31 1 -16 -2 -27 -6 -22 -12 14 -29 96 -22 107 4
6 8 -4 10 -21 2 -18 6 -33 10 -33z m-38 -27 c0 -16 -4 -21 -16 -16 -8 3 -13
12 -10 19 3 8 0 14 -7 14 -7 0 -22 7 -33 15 -18 14 -18 14 2 9 12 -3 25 0 29
7 11 16 35 -17 35 -48z m226 40 c-3 -7 1 -13 9 -13 9 0 12 6 9 18 -4 11 1 8
15 -8 11 -14 21 -35 21 -47 0 -13 5 -23 11 -23 7 0 10 12 7 29 -3 21 -1 28 9
24 17 -7 16 -24 -3 -51 -22 -32 -7 -27 29 11 24 24 28 26 16 7 -9 -14 -21 -35
-28 -48 -10 -18 -15 -21 -26 -12 -7 6 -25 8 -39 4 -25 -6 -26 -5 -19 27 5 29
4 32 -9 22 -12 -10 -18 -10 -34 2 -24 18 -31 18 -31 1 0 -8 3 -15 6 -14 3 0
15 -3 26 -7 23 -7 60 -75 41 -75 -6 0 -16 10 -21 22 -11 25 -95 88 -122 92
-30 5 -27 33 4 44 41 16 135 12 129 -5z m-355 -51 c-7 -2 -18 1 -23 6 -8 8 -4
9 13 5 13 -4 18 -8 10 -11z m194 8 c3 -5 1 -10 -4 -10 -6 0 -11 5 -11 10 0 6
2 10 4 10 3 0 8 -4 11 -10z m-91 -31 c6 -5 -4 -5 -24 1 -18 5 -35 12 -39 16
-9 10 53 -6 63 -17z m119 -13 c-5 -8 -3 -8 8 1 11 9 18 8 33 -3 11 -8 16 -14
11 -14 -5 0 1 -7 13 -16 12 -8 22 -21 22 -27 0 -7 -4 -6 -10 3 -8 13 -10 13
-10 -1 0 -18 26 -33 41 -23 5 3 4 -6 -3 -21 -12 -27 -34 -29 -32 -1 1 9 -2 16
-7 16 -14 0 -21 -20 -11 -33 5 -7 6 -21 1 -32 -4 -11 -8 -14 -8 -7 -1 10 -41
19 -41 8 0 -2 -3 -13 -7 -23 -6 -16 -5 -16 10 -4 15 12 17 12 11 -3 -4 -10
-13 -15 -22 -11 -8 3 -19 0 -23 -7 -6 -9 -10 -8 -15 6 -5 13 -1 23 12 33 10 8
18 18 17 23 -1 4 5 7 13 6 9 0 25 16 37 36 21 36 21 37 3 57 -12 13 -31 21
-52 21 -18 0 -36 5 -39 10 -3 6 1 10 10 10 9 0 14 4 11 9 -4 5 3 7 14 4 11 -3
17 -10 13 -17z m-83 4 c0 -5 -2 -10 -4 -10 -3 0 -8 5 -11 10 -3 6 -1 10 4 10
6 0 11 -4 11 -10z m356 -49 c-3 -4 -18 -14 -34 -20 -15 -6 -33 -20 -40 -31
-11 -18 -10 -19 18 -13 19 3 30 1 30 -6 0 -6 -4 -11 -10 -11 -5 0 -10 -12 -10
-26 0 -23 -3 -26 -25 -22 -14 3 -28 1 -31 -3 -9 -15 -34 -10 -34 6 0 8 -5 15
-12 15 -6 0 1 14 17 30 21 22 24 30 13 30 -9 0 -18 -10 -21 -22 -4 -12 -9 -19
-13 -15 -10 10 17 57 33 57 7 0 13 4 13 9 0 5 9 11 20 14 11 3 18 1 14 -4 -9
-15 13 -10 26 6 13 16 55 21 46 6z m-441 -29 c-3 -3 -11 0 -18 7 -9 10 -8 11
6 5 10 -3 15 -9 12 -12z m80 -12 c24 -9 26 -12 14 -27 -13 -17 -12 -17 13 0
15 9 33 17 40 16 7 0 3 -5 -9 -11 -13 -6 -23 -16 -23 -22 0 -7 -9 -12 -20 -13
-11 -1 -20 2 -20 7 0 5 -9 11 -19 15 -13 4 -17 12 -14 25 6 23 4 23 38 10z
m-95 -36 c0 -2 -11 -4 -25 -4 -14 0 -25 4 -25 9 0 4 11 6 25 3 14 -2 25 -6 25
-8z m80 -18 c0 -3 -4 -8 -10 -11 -5 -3 -10 -1 -10 4 0 6 5 11 10 11 6 0 10 -2
10 -4z m320 -56 c0 -5 -9 -10 -20 -10 -11 0 -20 5 -20 10 0 6 9 10 20 10 11 0
20 -4 20 -10z m75 -49 c-3 -12 -9 -21 -13 -21 -4 0 -6 -21 -5 -47 l2 -48 -11
38 c-9 32 -7 44 8 72 19 37 30 40 19 6z m-110 9 c-3 -5 -11 -10 -16 -10 -6 0
-7 5 -4 10 3 6 11 10 16 10 6 0 7 -4 4 -10z m-247 -95 c-3 -3 -9 2 -12 12 -6
14 -5 15 5 6 7 -7 10 -15 7 -18z m389 -347 c-3 -8 -6 -5 -6 6 -1 11 2 17 5 13
3 -3 4 -12 1 -19z m-63 -104 c3 -8 2 -12 -4 -9 -6 3 -10 10 -10 16 0 14 7 11
14 -7z m-184 -74 c0 -5 -2 -10 -4 -10 -3 0 -8 5 -11 10 -3 6 -1 10 4 10 6 0
11 -4 11 -10z m-1070 -55 c0 -33 4 -45 15 -45 11 0 15 12 15 45 0 38 3 45 20
45 17 0 20 -7 20 -50 0 -56 -22 -77 -68 -65 -35 9 -42 21 -42 73 0 35 3 42 20
42 17 0 20 -7 20 -45z m142 18 l17 -28 1 28 c0 20 5 27 20 27 18 0 20 -7 20
-54 0 -39 -4 -55 -15 -60 -15 -5 -23 1 -50 39 -14 19 -14 19 -15 -12 0 -25 -4
-30 -17 -27 -15 4 -17 14 -15 59 4 64 26 74 54 28z m108 -27 c0 -37 -4 -56
-14 -59 -22 -8 -26 2 -26 60 0 46 3 53 20 53 18 0 20 -7 20 -54z m165 37 c6
-17 7 -17 19 0 7 9 23 17 35 17 22 0 22 0 -4 -37 -14 -21 -25 -48 -25 -61 0
-31 -24 -24 -28 8 -7 42 -30 68 -57 62 -22 -4 -25 -9 -25 -49 0 -37 -3 -44
-17 -41 -13 2 -19 15 -21 46 -2 28 -8 42 -18 42 -8 0 -14 7 -14 15 0 12 15 15
74 15 61 0 75 -3 81 -17z m56 -333 c24 0 25 -30 2 -31 -10 0 -30 -3 -45 -5
-23 -4 -28 -1 -28 15 0 21 17 32 38 25 8 -2 22 -4 33 -4z m669 -14 c0 -26 -21
-47 -28 -28 -2 7 -11 12 -19 12 -11 0 -8 6 8 20 32 26 39 25 39 -4z m-761 -17
c-13 -26 -23 -18 -14 10 3 12 11 19 16 16 5 -4 5 -14 -2 -26z m604 25 c3 -3
-2 -14 -11 -25 -16 -18 -17 -18 -23 -2 -4 10 -5 21 -2 26 5 8 27 9 36 1z m672
-4 c18 -8 17 -9 -7 -9 -16 -1 -28 4 -28 9 0 12 8 12 35 0z m-600 -60 c3 -5 2
-10 -4 -10 -5 0 -13 5 -16 10 -3 6 -2 10 4 10 5 0 13 -4 16 -10z m639 -85 c-6
-16 -24 -21 -24 -7 0 11 11 22 21 22 5 0 6 -7 3 -15z m-1288 -20 c9 -14 13
-29 9 -33 -7 -7 -45 34 -45 49 0 18 20 9 36 -16z m533 -38 c-22 -17 -24 -18
-27 -3 -2 10 -1 24 2 32 5 12 10 13 28 3 l22 -12 -25 -20z m241 19 c0 -9 -9
-12 -27 -8 -24 5 -25 6 -8 18 20 15 35 10 35 -10z m-218 -48 c-17 -17 -15 -38
5 -38 12 0 7 -8 -17 -29 -19 -16 -35 -28 -36 -28 -1 1 -4 14 -8 29 -5 23 0 33
25 58 18 17 35 28 37 25 3 -3 0 -11 -6 -17z m218 -2 c0 -16 -7 -22 -25 -24
-13 -1 -27 3 -30 9 -12 18 3 37 29 37 20 0 26 -6 26 -22z m16 -77 c2 -17 -54
-29 -141 -29 -50 0 -79 -20 -105 -69 -10 -21 -29 -45 -42 -53 -30 -19 -78 -31
-78 -19 0 19 12 41 23 41 6 0 28 8 49 17 32 15 37 22 33 41 -4 17 3 31 24 53
29 29 31 29 55 14 28 -19 77 -13 97 11 17 20 81 15 85 -7z m-16 -59 c0 -5 -12
-10 -27 -11 -24 0 -25 -1 -8 -8 12 -5 -6 -7 -45 -5 -41 2 -75 -2 -92 -11 -26
-13 -27 -12 -18 6 12 22 33 28 120 32 36 2 66 4 68 5 1 1 2 -2 2 -8z m45 -50
c-24 -6 -25 -8 -7 -9 12 0 22 -5 22 -10 0 -5 -35 -13 -77 -17 -62 -6 -72 -9
-48 -15 17 -4 23 -7 15 -8 -8 0 -20 -9 -27 -19 -16 -26 -73 -18 -73 9 0 11 -6
28 -12 39 -23 36 9 46 130 41 72 -3 97 -6 77 -11z m710 -30 c4 -7 13 -7 26 0
17 10 19 7 19 -20 0 -16 -4 -30 -10 -30 -5 0 -10 7 -10 15 0 8 -4 15 -10 15
-5 0 -10 -7 -10 -15 0 -20 -39 -20 -46 0 -11 27 27 58 41 35z m105 5 c0 -2 -5
-16 -12 -30 -13 -30 -32 -34 -23 -5 4 11 2 20 -4 20 -6 0 -11 5 -11 10 0 6 11
10 25 10 14 0 25 -2 25 -5z m-1086 -27 c-7 -22 -42 -57 -58 -58 -5 0 -14 -8
-21 -17 -11 -15 -15 -15 -29 -4 -20 17 -21 31 -1 31 25 0 92 37 98 55 10 23
19 18 11 -7z m296 2 c0 -5 -14 -10 -31 -10 -17 0 -28 4 -24 10 3 6 17 10 31
10 13 0 24 -4 24 -10z m15 -30 c-3 -4 1 -10 7 -13 22 -7 5 -14 -53 -21 -55 -7
-57 -6 -61 18 -5 24 -3 25 46 28 56 3 69 1 61 -12z"/>
<path d="M175 2161 c-6 -5 -21 -11 -35 -13 -19 -2 -26 -10 -28 -31 -3 -26 -1
-28 25 -25 21 2 29 9 31 28 2 14 9 31 14 38 12 14 7 16 -7 3z"/>
<path d="M1216 1855 c-3 -8 -1 -15 4 -15 6 0 10 7 10 15 0 8 -2 15 -4 15 -2 0
-6 -7 -10 -15z"/>
<path d="M1260 1855 c-11 -13 -10 -15 2 -10 11 5 14 -1 13 -25 -1 -18 3 -29 9
-27 11 4 9 42 -3 65 -6 11 -10 10 -21 -3z"/>
<path d="M1193 133 c9 -2 25 -2 35 0 9 3 1 5 -18 5 -19 0 -27 -2 -17 -5z"/>
<path d="M1288 133 c7 -3 16 -2 19 1 4 3 -2 6 -13 5 -11 0 -14 -3 -6 -6z"/>
<path d="M2031 94 c0 -11 3 -14 6 -6 3 7 2 16 -1 19 -3 4 -6 -2 -5 -13z"/>
<path d="M970 30 c0 -5 5 -10 10 -10 6 0 10 5 10 10 0 6 -4 10 -10 10 -5 0
-10 -4 -10 -10z"/>
</g>
</svg>
