<svg height="457pt" viewBox="0 -34 457.14286 457" width="457pt" xmlns="http://www.w3.org/2000/svg"><path d="m386.601562 247.4375c-26.703124 0-49.984374 14.914062-61.960937 36.851562l-194.988281-75.101562c1.117187-4.792969 1.765625-9.765625 1.765625-14.894531 0-5.117188-.644531-10.074219-1.757813-14.859375l194.953125-75.179688c11.96875 21.960938 35.265625 36.898438 61.988281 36.898438 38.898438 0 70.542969-31.644532 70.542969-70.546875 0-38.890625-31.644531-70.5351565-70.542969-70.5351565-38.894531 0-70.542968 31.6445315-70.542968 70.5351565 0 5.714843.757812 11.246093 2.046875 16.566406l-195.007813 75.203125c-11.246094-20.128906-32.738281-33.785156-57.386718-33.785156-36.234376 0-65.710938 29.472656-65.710938 65.703125 0 36.234375 29.476562 65.707031 65.710938 65.707031 24.628906 0 46.113281-13.640625 57.363281-33.746094l195.039062 75.125c-1.292969 5.332032-2.054687 10.875-2.054687 16.601563 0 38.894531 31.648437 70.539062 70.542968 70.539062 38.898438 0 70.542969-31.644531 70.542969-70.539062 0-38.898438-31.644531-70.542969-70.542969-70.542969zm0-229.082031c28.8125 0 52.253907 23.4375 52.253907 52.25s-23.441407 52.261719-52.253907 52.261719c-28.816406 0-52.257812-23.449219-52.257812-52.261719s23.441406-52.25 52.257812-52.25zm-320.890624 223.359375c-26.152344 0-47.425782-21.277344-47.425782-47.421875 0-26.140625 21.273438-47.417969 47.425782-47.417969 26.152343 0 47.421874 21.277344 47.421874 47.417969 0 26.144531-21.269531 47.421875-47.421874 47.421875zm320.890624 128.515625c-28.816406 0-52.257812-23.4375-52.257812-52.25s23.441406-52.257813 52.257812-52.257813c28.8125 0 52.253907 23.445313 52.253907 52.257813s-23.441407 52.25-52.253907 52.25zm0 0"/></svg>